<?xml version="1.0" encoding="UTF-8"?>
<svg version="1.1" xmlns="http://www.w3.org/2000/svg" width="1793" height="492">
<path d="M0 0 C1.58658458 1.36839553 3.14795843 2.7663847 4.6875 4.1875 C5.65042969 5.05890625 6.61335937 5.9303125 7.60546875 6.828125 C26.30695837 24.29098707 37.60452733 49.16190135 38.80981445 74.78808594 C39.69470451 105.81003216 32.806501 133.72844348 11.6875 157.1875 C-5.28291597 174.95652378 -29.89925639 187.02591365 -54.57543945 188.36450195 C-85.75386698 188.93476977 -114.49197453 183.94807436 -138.3125 162.1875 C-139.48039062 161.14142578 -139.48039062 161.14142578 -140.671875 160.07421875 C-159.27028316 142.53399588 -169.8091475 116.70742852 -170.6484375 91.33984375 C-171.01242307 62.22499816 -165.63507213 36.89532591 -146.3125 14.1875 C-145.51585937 13.17236328 -145.51585937 13.17236328 -144.703125 12.13671875 C-128.75913771 -7.55647347 -103.00605995 -17.7016177 -78.47753906 -20.61401367 C-50.85095334 -23.14676223 -22.27970593 -17.13823533 0 0 Z M-101.0625 42.875 C-112.36474886 56.70959236 -115.47016979 74.86450895 -113.91577148 92.2800293 C-112.58839359 104.09866137 -108.72617296 114.81897795 -101.3125 124.1875 C-100.83554687 124.80109375 -100.35859375 125.4146875 -99.8671875 126.046875 C-93.15584624 133.66880025 -82.12942857 138.71908298 -72.15625 140.0390625 C-58.39968365 140.75712503 -46.08735636 138.0411044 -35.3125 129.1875 C-23.97151297 118.70125648 -18.72879585 105.00651742 -17.99609375 89.77734375 C-17.47253471 71.83503481 -19.95273296 54.50488993 -32.62890625 40.7421875 C-43.30727525 30.88141984 -55.8887669 27.64253159 -70.1015625 27.9140625 C-82.45624847 28.4809972 -92.63787985 34.02730941 -101.0625 42.875 Z " fill="#EA0029" transform="translate(516.3125,25.8125)"/>
<path d="M0 0 C12.41369216 11.37709094 21.03265161 25.01486166 23.10620117 42.03979492 C23.10620117 46.32979492 23.10620117 50.61979492 23.10620117 55.03979492 C6.60620117 55.36979492 -9.89379883 55.69979492 -26.89379883 56.03979492 C-28.21379883 51.74979492 -29.53379883 47.45979492 -30.89379883 43.03979492 C-35.08876174 35.08383078 -41.36290499 30.56106876 -49.80395508 27.79370117 C-61.23080829 25.00560677 -73.73844657 25.0355529 -84.23754883 30.84448242 C-87.90658033 33.49241553 -89.48799639 36.76828063 -90.83129883 40.97729492 C-90.91704745 45.17897746 -90.08916564 47.4473765 -87.89379883 51.03979492 C-82.26915069 55.06981275 -75.55885068 56.20433308 -68.89379883 57.41479492 C-67.82726074 57.61975586 -66.76072266 57.8247168 -65.66186523 58.03588867 C-60.03758835 59.10978233 -54.40399426 60.13047189 -48.76776123 61.13931274 C-45.9566806 61.64390233 -43.14694254 62.15578964 -40.3371582 62.6675415 C-38.33411924 63.02803887 -36.32908044 63.37499733 -34.32348633 63.72094727 C-14.69047369 67.26496543 4.75778578 73.91510431 17.41870117 90.22729492 C27.71533679 105.30822587 29.80793081 123.03362501 26.86010742 140.69995117 C23.25008089 156.69255577 13.52793734 169.49964368 -0.14379883 178.28979492 C-25.30205483 192.91466346 -59.12886459 195.26929381 -87.35473633 189.01635742 C-109.71079448 182.8474672 -129.72091513 173.26614291 -141.89379883 152.65307617 C-148.20640282 141.02629025 -150.81841572 129.25068469 -150.89379883 116.03979492 C-149.03119168 114.17718778 -145.92394297 114.79830582 -143.42895508 114.72338867 C-142.7678624 114.70256226 -142.10676971 114.68173584 -141.42564392 114.66027832 C-139.26931427 114.59410956 -137.11285962 114.53540245 -134.95629883 114.47729492 C-133.48949885 114.43451393 -132.02270196 114.39162659 -130.5559082 114.34863281 C-120.33405168 114.05925452 -110.11942129 113.91197464 -99.89379883 114.03979492 C-99.62567383 115.09038086 -99.35754883 116.1409668 -99.08129883 117.22338867 C-96.38727031 127.12981416 -93.47338078 134.87341388 -84.40161133 140.61791992 C-69.67736841 148.40520949 -53.6411774 148.70221735 -37.89379883 144.03979492 C-33.10538977 142.0500907 -30.55020514 140.11391434 -27.83129883 135.66479492 C-26.77152234 131.5669925 -26.74266249 129.1071433 -27.89379883 125.03979492 C-31.41177011 119.68636036 -38.83887034 117.77396462 -44.79592896 116.34234619 C-47.95848828 115.73401259 -51.12550909 115.19149752 -54.30395508 114.67260742 C-56.70046638 114.25739823 -59.09694987 113.8420285 -61.4934082 113.42651367 C-65.21554137 112.79471608 -68.93842959 112.16778274 -72.66210938 111.54516602 C-109.94666121 105.2687391 -109.94666121 105.2687391 -124.89379883 94.03979492 C-125.98241211 93.2412207 -125.98241211 93.2412207 -127.09301758 92.42651367 C-137.89285816 83.80721233 -143.67640371 70.59159915 -145.57739258 57.16479492 C-147.32553288 39.89921171 -144.34150876 23.29313115 -133.75317383 9.18823242 C-119.26828053 -7.57575248 -99.08007957 -16.00078945 -77.19360352 -17.81518555 C-51.34229604 -19.44529984 -20.55248226 -17.82436048 0 0 Z " fill="#EA0029" transform="translate(155.893798828125,22.960205078125)"/>
<path d="M0 0 C51.48 0 102.96 0 156 0 C156 14.85 156 29.7 156 45 C122.34 45 88.68 45 54 45 C54 55.56 54 66.12 54 77 C79.74 77 105.48 77 132 77 C132 91.85 132 106.7 132 122 C106.26 122 80.52 122 54 122 C54 133.22 54 144.44 54 156 C88.65 156 123.3 156 159 156 C159 171.18 159 186.36 159 202 C106.53 202 54.06 202 0 202 C0 135.34 0 68.68 0 0 Z " fill="#EA0029" transform="translate(192,9)"/>
<path d="M0 0 C114.78506375 0 114.78506375 0 139 23 C139.91007813 23.82113281 140.82015625 24.64226562 141.7578125 25.48828125 C148.60489514 31.93424052 153.54310501 38.73893607 158 47 C158.47050781 47.85851562 158.94101562 48.71703125 159.42578125 49.6015625 C172.67094409 76.09188819 172.27996529 109.8482811 163.8125 137.625 C155.78142205 160.12155068 141.54150397 177.21340202 119.97753906 188.07275391 C83.64538378 205.10849783 36.79883507 198 0 198 C0 132.66 0 67.32 0 0 Z M20 18 C20 71.46 20 124.92 20 180 C74.87988349 183.64568914 74.87988349 183.64568914 123 163 C124.18529297 162.00033203 124.18529297 162.00033203 125.39453125 160.98046875 C141.65088192 146.05342785 146.97376103 123.88959444 147.92724609 102.62890625 C148.55039952 80.68052255 143.81546487 57.09783838 128.625 40.4375 C115.56991068 26.84172044 99.36983677 20.6242624 81 18 C60.87 18 40.74 18 20 18 Z " fill="#000000" transform="translate(616,236)"/>
<path d="M0 0 C15.64408516 12.02493113 24.46731931 28.02886564 27.49609375 47.5625 C30.41748085 70.27409496 27.17668094 94.41034445 13 113 C2.15515266 125.59754993 -11.00713061 132.57700652 -27.48046875 134.74609375 C-44.50732692 135.97444645 -59.65313834 132.26988313 -73.02734375 121.34375 C-78.04012306 116.69294381 -80.29833468 112.16944221 -84 106 C-84.33 131.74 -84.66 157.48 -85 184 C-91.6 184 -98.2 184 -105 184 C-105 121.3 -105 58.6 -105 -6 C-98.4 -6 -91.8 -6 -85 -6 C-84.67 2.25 -84.34 10.5 -84 19 C-81.69 15.7 -79.38 12.4 -77 9 C-69.41427542 0.54378244 -61.07284232 -5.14448037 -50 -8 C-49.29617188 -8.18433594 -48.59234375 -8.36867188 -47.8671875 -8.55859375 C-31.25932456 -11.11539009 -14.31235032 -9.08426381 0 0 Z M-75 24 C-77.50504794 27.17167192 -79.33849685 30.31904929 -81 34 C-81.41121094 34.89847656 -81.82242187 35.79695313 -82.24609375 36.72265625 C-85.35059431 45.21974949 -85.38442339 53.66013462 -85.4375 62.625 C-85.44765137 63.8519458 -85.45780273 65.0788916 -85.46826172 66.34301758 C-85.32769621 81.07566828 -82.02055462 94.03136113 -71.625 104.875 C-61.12032903 114.64800235 -48.91129681 118.86907388 -34.453125 118.3828125 C-22.14192362 117.01799606 -11.51103716 112.03106757 -3.62890625 102.375 C7.78177841 85.73783868 9.18291368 64.59950852 5.9375 45.1875 C2.83693468 31.65908998 -3.74714685 19.77858392 -15.63671875 12.28515625 C-35.78293448 1.32961084 -60.1155494 7.57161935 -75 24 Z " fill="#000000" transform="translate(1518,303)"/>
<path d="M0 0 C14.0751743 11.39330798 21.05754079 26.34524472 24 44 C24 51.26 24 58.52 24 66 C-12.63 66 -49.26 66 -87 66 C-84.83279538 78.31325385 -84.83279538 78.31325385 -80.375 89.375 C-80.03017578 90.03927002 -79.68535156 90.70354004 -79.33007812 91.38793945 C-73.32818595 102.41520409 -64.06028633 109.68488254 -52.17578125 113.421875 C-39.43171857 116.80808914 -25.75917847 115.81616967 -14.0625 109.5625 C-3.29597266 103.27683953 1.82750783 94.123072 5.17578125 82.3359375 C6 80 6 80 8 79 C10.56540521 79.25077557 13.0785651 79.55929334 15.625 79.9375 C16.68460938 80.08735352 16.68460938 80.08735352 17.765625 80.24023438 C19.51121607 80.48791959 21.25572084 80.74323871 23 81 C25.33147247 86.87936535 21.29546931 93.53120747 19 99 C11.50357343 114.42492383 -0.6291313 124.22778646 -16.59765625 130 C-35.98724461 135.69889164 -56.66431716 133.40619776 -74.625 124.3125 C-80.47801078 120.96792241 -85.23716997 116.73754067 -90 112 C-90.55300781 111.48179687 -91.10601563 110.96359375 -91.67578125 110.4296875 C-104.58156035 97.14125727 -108.38713791 76.87228746 -108.2109375 59.12890625 C-107.55854686 42.25131878 -102.64395829 26.26364647 -92 13 C-91.49082031 12.31679687 -90.98164062 11.63359375 -90.45703125 10.9296875 C-69.42067293 -15.5605415 -26.94178537 -18.3959197 0 0 Z M-69 16 C-69.62648438 16.5465625 -70.25296875 17.093125 -70.8984375 17.65625 C-80.52297559 26.56630273 -84.88248164 38.29488986 -87 51 C-57.3 51 -27.6 51 3 51 C1.46719663 34.13916289 -2.83628044 22.75742527 -15.625 11.76171875 C-31.73956011 -0.19168028 -54.74358933 3.00960263 -69 16 Z " fill="#000000" transform="translate(857,80)"/>
<path d="M0 0 C13.51735265 10.37193038 21.57031678 24.38457522 25 41 C26 49 26 49 26 67 C-10.63 67 -47.26 67 -85 67 C-81.71965963 84.49514863 -77.856464 98.43667333 -62.875 108.75 C-50.28938641 116.24306967 -36.9823725 117.93556886 -22.6875 114.875 C-11.70793743 111.69166374 -3.03680213 105.30322218 2.53515625 95.22265625 C4.87482728 90.25000265 6.54676295 85.30235139 8 80 C10.62651431 80.28119857 13.25069335 80.57443838 15.875 80.875 C16.62136719 80.95363281 17.36773438 81.03226562 18.13671875 81.11328125 C23.7734375 81.7734375 23.7734375 81.7734375 26 84 C20.16099154 103.14471358 12.4623756 116.46020901 -5 127 C-21.61508226 135.28420534 -42.52340956 136.24656922 -60.13671875 130.7734375 C-68.32227469 128.01249326 -75.24794056 124.4671526 -82 119 C-82.91265625 118.34644531 -82.91265625 118.34644531 -83.84375 117.6796875 C-93.20163983 110.5761984 -99.36055694 98.91832918 -103 88 C-103.31839844 87.06542969 -103.63679688 86.13085938 -103.96484375 85.16796875 C-109.8178872 64.58791275 -106.25465393 42.12425112 -96.66015625 23.3828125 C-88.62479707 9.09278316 -76.3351577 -1.28987076 -61 -7 C-60.15824219 -7.3196875 -59.31648438 -7.639375 -58.44921875 -7.96875 C-39.67682685 -13.8368204 -16.22291492 -11.12074626 0 0 Z M-71.625 20.4375 C-74.75209386 24.25537706 -77.04902112 28.4479512 -79.3125 32.8125 C-79.65039551 33.45179443 -79.98829102 34.09108887 -80.33642578 34.74975586 C-83.26400245 40.69162476 -83.72480091 44.98640502 -85 52 C-55.3 52 -25.6 52 5 52 C2.62147903 36.53961366 -0.51904132 23.27183304 -13.18359375 13.2421875 C-32.17614286 0.25373456 -55.97392705 4.4331297 -71.625 20.4375 Z " fill="#000000" transform="translate(1172,304)"/>
<path d="M0 0 C14.85903289 12.61706003 21.08008379 29.96871661 22.6640625 48.89453125 C22.88394674 54.05023796 22.8125 59.21460654 22.8125 64.375 C-14.1475 64.375 -51.1075 64.375 -89.1875 64.375 C-85.03795439 82.01056885 -81.06873561 96.599847 -65.4375 106.75 C-52.13399495 113.97659534 -38.4213727 115.43961837 -23.87109375 111.28515625 C-12.54076096 107.44240874 -5.49713912 101.12556053 -0.1875 90.375 C1.61672987 86.07808413 3.2262649 81.76047352 4.8125 77.375 C10.0925 78.035 15.3725 78.695 20.8125 79.375 C21.86172043 84.62110213 21.22715767 87.23803641 19.375 92 C19.10421631 92.70568115 18.83343262 93.4113623 18.55444336 94.13842773 C12.97140527 107.96316834 2.30922145 119.72975163 -11.3828125 125.7890625 C-31.9400251 133.65323108 -52.99230467 133.0995188 -73.1875 124.375 C-89.06443867 116.72208712 -100.16471163 103.43157184 -106.125 87.0625 C-112.76359539 64.68029124 -110.93606155 41.4721351 -100.4375 20.5625 C-97.09386975 14.79879978 -92.87570928 10.07888891 -88.1875 5.375 C-87.49914062 4.6634375 -86.81078125 3.951875 -86.1015625 3.21875 C-63.39862424 -18.7246104 -24.5925428 -18.25464982 0 0 Z M-75.42578125 18.13671875 C-82.50588578 27.1320622 -88.1875 37.77493834 -88.1875 49.375 C-58.8175 49.375 -29.4475 49.375 0.8125 49.375 C0.8125 36.10311531 -3.32909056 23.84632959 -12.43359375 13.93359375 C-15.98796546 10.77503181 -19.96045926 8.51445314 -24.1875 6.375 C-24.86296875 6.03210938 -25.5384375 5.68921875 -26.234375 5.3359375 C-43.43679607 -1.79839992 -63.15456149 5.23620567 -75.42578125 18.13671875 Z " fill="#000000" transform="translate(908.1875,306.625)"/>
<path d="M0 0 C12.80055416 10.78698384 18.67669048 25.26299471 21.75 41.3125 C21.75 48.9025 21.75 56.4925 21.75 64.3125 C-14.88 64.3125 -51.51 64.3125 -89.25 64.3125 C-85.10045439 81.94806885 -81.13123561 96.537347 -65.5 106.6875 C-52.19649495 113.91409534 -38.4838727 115.37711837 -23.93359375 111.22265625 C-12.60326096 107.37990874 -5.55963912 101.06306053 -0.25 90.3125 C1.55422987 86.01558413 3.1637649 81.69797352 4.75 77.3125 C10.03 77.9725 15.31 78.6325 20.75 79.3125 C22.8095912 87.55086481 17.58502212 96.53420573 13.51171875 103.64453125 C4.9058795 116.67732106 -7.68856015 126.0049573 -23 129.625 C-24.41222224 129.88012774 -25.82928823 130.10991702 -27.25 130.3125 C-27.98734375 130.42207031 -28.7246875 130.53164063 -29.484375 130.64453125 C-49.5813977 133.24328419 -69.56379249 128.7734307 -85.76953125 116.38671875 C-96.42205149 107.43598362 -103.1230888 96.54647684 -107.25 83.3125 C-107.48332031 82.5803125 -107.71664063 81.848125 -107.95703125 81.09375 C-113.33288912 60.98262703 -109.76451098 38.82314394 -100.5 20.5 C-97.15636975 14.73629978 -92.93820928 10.01638891 -88.25 5.3125 C-87.56164063 4.6009375 -86.87328125 3.889375 -86.1640625 3.15625 C-63.43615179 -18.81124734 -24.58576586 -18.31733395 0 0 Z M-75.48828125 18.07421875 C-82.56838578 27.0695622 -88.25 37.71243834 -88.25 49.3125 C-58.88 49.3125 -29.51 49.3125 0.75 49.3125 C0.75 36.04061531 -3.39159056 23.78382959 -12.49609375 13.87109375 C-16.05046546 10.71253181 -20.02295926 8.45195314 -24.25 6.3125 C-24.92546875 5.96960938 -25.6009375 5.62671875 -26.296875 5.2734375 C-43.49929607 -1.86089992 -63.21706149 5.17370567 -75.48828125 18.07421875 Z " fill="#000000" transform="translate(1667.25,306.6875)"/>
<path d="M0 0 C6.6 0 13.2 0 20 0 C20.33 26.73 20.66 53.46 21 81 C22.98 78.36 24.96 75.72 27 73 C34.72045323 64.52325748 45.96203821 58.82607008 57.39599609 57.78100586 C73.49055765 57.03470431 88.33900329 58.71941123 100.9609375 69.70703125 C115.73421515 85.028662 115.45343609 107.08851473 115.29296875 126.90625 C115.28735886 128.968462 115.28309537 131.03067805 115.28010559 133.09289551 C115.26876637 138.46534679 115.23939595 143.83754656 115.20599365 149.2098999 C115.17505445 154.71411743 115.16154978 160.21837644 115.14648438 165.72265625 C115.11451351 176.48189792 115.06183762 187.2408885 115 198 C108.4 198 101.8 198 95 198 C94.98541748 195.31141846 94.97083496 192.62283691 94.95581055 189.8527832 C94.9052699 180.92800183 94.83864141 172.00339137 94.76428509 163.07877827 C94.71972928 157.67257008 94.68044119 152.2664347 94.65356445 146.86010742 C94.62738316 141.63390768 94.58687781 136.40799035 94.53681374 131.18196678 C94.52024467 129.19712041 94.50866884 127.2122253 94.50238609 125.22731972 C94.58913097 101.85227196 94.58913097 101.85227196 83.1484375 82.15625 C73.87443279 74.61881191 63.50737773 73.98598355 52 75 C41.72736768 77.22280675 32.86436041 83.25315735 27 92 C22.70763304 100.16709821 20.85798532 106.60608424 20.79467773 115.80761719 C20.77982834 117.13985573 20.77982834 117.13985573 20.76467896 118.49900818 C20.73311812 121.43160343 20.7083279 124.36421488 20.68359375 127.296875 C20.66301955 129.33140481 20.64202295 131.36593039 20.62062073 133.40045166 C20.56544821 138.7532 20.51601765 144.1059866 20.46777344 149.45880127 C20.41752324 154.92178754 20.36185554 160.3847183 20.30664062 165.84765625 C20.19911797 176.56505848 20.09816056 187.28250792 20 198 C13.4 198 6.8 198 0 198 C0 132.66 0 67.32 0 0 Z " fill="#000000" transform="translate(1045,11)"/>
<path d="M0 0 C15.9228207 12.1859307 25.63912021 29.10564133 28.75 48.9375 C28.86480782 50.28936204 28.94282504 51.64447692 29 53 C29.0515625 54.07378906 29.103125 55.14757812 29.15625 56.25390625 C29.69221057 77.66999717 23.8450886 97.86881626 8.875 113.6875 C-4.56391034 126.55649759 -20.93450599 132.70176314 -39.4375 133.25 C-58.6041826 132.65432613 -76.57832171 126.05555633 -90 112 C-104.98743801 94.31084167 -109.2024874 73.57082663 -108 51 C-106.63179862 35.67686272 -100.45024653 21.24162442 -90 10 C-89.40832031 9.30648438 -88.81664062 8.61296875 -88.20703125 7.8984375 C-66.64896997 -15.91195854 -25.65520024 -17.44812107 0 0 Z M-74.2890625 19.5078125 C-86.36558248 35.02184379 -88.64653646 53.92670712 -86.5703125 72.93359375 C-84.31594891 86.30670121 -78.61591587 99.20305937 -68 108 C-55.6131407 115.87188573 -43.57418947 118.27669778 -29 116 C-17.94472159 113.23975584 -8.57128532 107.3762944 -2 98 C9.18458278 79.18358427 10.04995838 58.85567227 5 38 C1.876108 26.98337604 -4.98438919 16.78640412 -15 11 C-34.92840642 0.69897865 -58.56100926 2.2767371 -74.2890625 19.5078125 Z " fill="#000000" transform="translate(1365,305)"/>
<path d="M0 0 C11.94027018 9.92558063 19.53074381 24.34959865 21.73046875 39.6484375 C21.97740013 42.45028558 22.15334777 45.22373041 22.2109375 48.03515625 C16.23111559 49.0982357 10.28117201 49.39222887 4.2109375 49.03515625 C2.38058033 47.20479908 2.46802308 44.1880854 2.0234375 41.72265625 C-0.50900213 29.60400613 -5.57953267 19.38609498 -15.9765625 12.34765625 C-27.85035159 5.23910967 -40.79068695 4.18319694 -54.33203125 6.69140625 C-67.40614365 10.61533132 -76.10347521 19.00249346 -82.5390625 30.78515625 C-89.7998114 46.50479743 -90.27882961 66.23285344 -85.1171875 82.69921875 C-79.67613116 96.36587204 -72.03680262 105.02688607 -58.68359375 110.97265625 C-46.61877736 115.82658625 -33.00964635 114.92948121 -21.09765625 109.8984375 C-18.8963821 108.71772023 -16.84530276 107.45148771 -14.7890625 106.03515625 C-13.7578125 105.33390625 -12.7265625 104.63265625 -11.6640625 103.91015625 C-2.9407709 96.10765654 1.43760081 84.1582947 2.8359375 72.78515625 C3.0215625 71.42390625 3.0215625 71.42390625 3.2109375 70.03515625 C6.56426085 68.35849457 10.22158625 69.50032626 13.8359375 69.97265625 C14.63773438 70.07255859 15.43953125 70.17246094 16.265625 70.27539062 C18.24808441 70.52319805 20.22960759 70.77847432 22.2109375 71.03515625 C21.83266487 89.5017381 14.50148103 105.2753499 1.2109375 118.03515625 C-13.00107614 129.6125007 -31.1029081 133.42629078 -49.046875 131.7265625 C-66.62313747 129.54401562 -83.76304213 122.8177321 -95.01269531 108.47509766 C-108.93790442 89.43507353 -112.0881775 67.57936319 -109.50048828 44.45654297 C-106.64481803 26.15342157 -97.42910319 11.93382095 -83.4140625 0.16015625 C-59.48243628 -17.29885932 -23.98296679 -16.89556344 0 0 Z " fill="#000000" transform="translate(1002.7890625,80.96484375)"/>
<path d="M0 0 C55.11 0 110.22 0 167 0 C167 5.94 167 11.88 167 18 C142.58 18 118.16 18 93 18 C93 77.4 93 136.8 93 198 C86.07 198 79.14 198 72 198 C72 138.6 72 79.2 72 18 C48.24 18 24.48 18 0 18 C0 12.06 0 6.12 0 0 Z " fill="#000000" transform="translate(602,11)"/>
<path d="M0 0 C6.93 0 13.86 0 21 0 C29.73027621 20.37776835 38.3870646 40.77543568 46.66729736 61.34075928 C52.95639792 76.95990421 59.4406402 92.49255366 66 108 C68.72741217 105.27258783 69.74460451 102.04263177 71.140625 98.515625 C71.45556412 97.73241882 71.77050323 96.94921265 72.09498596 96.14227295 C72.78581698 94.42272746 73.47431071 92.70224161 74.16079712 90.98095703 C75.64762676 87.25303092 77.14539156 83.5295316 78.64265442 79.80578613 C79.45260168 77.79127731 80.26198329 75.77654099 81.07084656 73.76159668 C86.26870458 60.82100415 91.54385315 47.91188893 96.8125 35 C98.23195564 31.52039453 99.65121143 28.04070791 101.0700531 24.56085205 C101.9219715 22.47147754 102.77420974 20.3822334 103.62684631 18.29315186 C106.10947032 12.2052139 108.5643919 6.10690614 111 0 C117.6 0 124.2 0 131 0 C130.08527457 4.57362714 128.6884353 8.4217284 126.8515625 12.65625 C126.52773087 13.41365982 126.20389923 14.17106964 125.87025452 14.95143127 C125.16481007 16.59995614 124.45718668 18.24754988 123.74765015 19.89431763 C122.20470752 23.47550311 120.67225055 27.06114659 119.13902283 30.64649963 C118.32776826 32.54324709 117.51595996 34.4397578 116.70362854 36.33604431 C112.7197671 45.63911152 108.78497136 54.96259887 104.85604858 64.28897095 C94.63325276 88.55259303 84.32279828 112.77878979 74 137 C68.39 137 62.78 137 57 137 C48.87317339 118.11029092 40.80024118 99.19897876 32.8125 80.25 C25.90444153 63.86241056 18.96643552 47.48786365 12 31.125 C11.56676422 30.10732544 11.13352844 29.08965088 10.68716431 28.0411377 C8.75040433 23.49216409 6.81317939 18.94338856 4.875 14.39501953 C4.55789063 13.64738342 4.24078125 12.89974731 3.9140625 12.12945557 C3.31664127 10.73766675 2.70770551 9.35074945 2.0859375 7.96966553 C0.80935585 5.11609169 0 3.16756741 0 0 Z " fill="#000000" transform="translate(933,297)"/>
<path d="M0 0 C6.6 0 13.2 0 20 0 C20 65.34 20 130.68 20 198 C13.4 198 6.8 198 0 198 C0 132.66 0 67.32 0 0 Z " fill="#000000" transform="translate(1217,236)"/>
<path d="M0 0 C1.52384778 1.52384778 1.16908901 2.87905372 1.1875 5 C1.14851868 9.85707274 0.23915513 14.31997662 -1 19 C-4.35125149 18.38906389 -7.46770517 17.53914881 -10.6875 16.4375 C-19.07768597 13.91048553 -27.06498322 14.10919212 -35 18 C-46.307143 24.69276086 -51.80756067 35.59067939 -55 48 C-55.94930878 52.74760465 -56.16805048 57.38272858 -56.20532227 62.20849609 C-56.22017166 63.40949951 -56.22017166 63.40949951 -56.23532104 64.63476562 C-56.26674609 67.2642935 -56.29161784 69.8938394 -56.31640625 72.5234375 C-56.33699221 74.35332695 -56.3579891 76.18321182 -56.37937927 78.01309204 C-56.43443042 82.81671426 -56.48391412 87.62037818 -56.53222656 92.42407227 C-56.58256579 97.33092944 -56.63818687 102.23772646 -56.69335938 107.14453125 C-56.80073341 116.76297123 -56.90173559 126.38146264 -57 136 C-63.6 136 -70.2 136 -77 136 C-77 90.79 -77 45.58 -77 -1 C-70.4 -1 -63.8 -1 -57 -1 C-56.67 6.59 -56.34 14.18 -56 22 C-55.113125 20.47375 -54.22625 18.9475 -53.3125 17.375 C-47.50456563 7.7939296 -39.80485126 -0.39970923 -28.67578125 -3.5625 C-18.78073108 -5.18037682 -8.90941441 -5.03048569 0 0 Z " fill="#000000" transform="translate(1786,298)"/>
</svg>
